<?xml version="1.0" encoding="UTF-8" standalone="no"?>
<!-- Created with Inkscape (http://www.inkscape.org/) -->

<svg
   version="1.1"
   id="svg1"
   width="216"
   height="204"
   viewBox="0 0 216 204"
   sodipodi:docname="tree_trace_1.svg"
   inkscape:version="1.4.2 (ebf0e94, 2025-05-08)"
   xmlns:inkscape="http://www.inkscape.org/namespaces/inkscape"
   xmlns:sodipodi="http://sodipodi.sourceforge.net/DTD/sodipodi-0.dtd"
   xmlns:xlink="http://www.w3.org/1999/xlink"
   xmlns="http://www.w3.org/2000/svg"
   xmlns:svg="http://www.w3.org/2000/svg">
  <defs
     id="defs1" />
  <sodipodi:namedview
     id="namedview1"
     pagecolor="#ffffff"
     bordercolor="#111111"
     borderopacity="1"
     inkscape:showpageshadow="0"
     inkscape:pageopacity="0"
     inkscape:pagecheckerboard="1"
     inkscape:deskcolor="#d1d1d1"
     inkscape:zoom="3.379902"
     inkscape:cx="189.65047"
     inkscape:cy="154.59028"
     inkscape:window-width="2880"
     inkscape:window-height="1620"
     inkscape:window-x="789"
     inkscape:window-y="141"
     inkscape:window-maximized="0"
     inkscape:current-layer="tree"
     showgrid="false" />
  <g
     id="tree"
     style="stroke:#000000;stroke-linejoin:round;">
    <path
       style="fill:#664411;"
       d="m 139.94489,88.907905 14.49746,-0.147934 v 5.177665 l -15.23713,-0.887599 z"
       id="path6" />
    <path
       style="fill:#448800;"
       d="m 125.00363,102.81363 c 4.29006,-8.432194 10.94706,-2.219 14.79332,-2.958662 3.84627,-0.739667 0.8876,-9.91153 2.36694,-12.426396 1.47933,-2.514866 8.43219,-9.763597 6.50906,-11.68673 -1.92313,-1.923133 -7.1008,1.3314 -10.65119,-0.8876 -3.5504,-2.218999 0.59173,-13.905728 0.59173,-13.905728 L 108.8789,29.438724 c 0,0 -22.781728,23.373459 -32.101525,22.042059 -9.319797,-1.331399 -11.686729,-8.728064 -19.37926,-5.769398 -7.692531,2.958666 -11.094997,5.473532 -16.864395,10.651197 -5.769398,5.177665 -7.692531,20.562726 -7.692531,20.562726 L 83.582306,101.7781 Z"
       id="path10" />
    <path
       id="path3"
       style="fill:#664411;"
       d="m 58.876953,20.5625 c -0.873172,13.440622 -0.623695,13.783174 11.390625,18.048828 0,0 5.177486,4.732301 7.396484,8.134766 2.218999,3.402466 -0.147428,5.47436 0.148438,7.693359 1.955643,11.683427 7.10472,16.150511 17.457031,20.859375 L 94.380859,95.416016 108.28711,84.914062 c 0,0 1.03516,-14.941221 1.03516,-17.751953 0,-2.810733 -15.088903,-12.721839 -15.38477,-14.201171 2.745821,-5.593416 12.54517,-6.12957 17.90039,-6.509766 -9.4276,-3.532542 -13.139378,0.727723 -21.302734,3.845703 -1.035533,-1.183466 1.626953,-5.472656 1.626953,-5.472656 l -2.810547,-4.142578 c 0,0 -2.07088,10.651149 -2.810546,13.166015 -0.739666,2.514866 -3.550782,2.21875 -3.550782,2.21875 0,0 -1.626953,-1.774637 -1.626953,-3.845703 0,-2.071066 1.035284,-3.845895 2.21875,-5.621094 1.183467,-1.7752 5.621094,-6.658203 5.621094,-6.658203 l -0.591797,-2.21875 c -3.141288,2.316868 -5.293595,5.565637 -7.691406,8.580078 -1.387591,-4.73957 -3.029183,-7.016711 -7.69336,-8.875 l 8.136719,-2.367187 -2.515625,-2.958985 c 0,10e-7 -6.951235,3.403162 -7.542968,1.923829 -0.591735,-1.479333 -1.03711,-6.066407 -1.03711,-6.066407 l -2.21875,-1.035156 -0.443359,7.839844 c -6.762867,-3.15413 -7.713698,-4.760616 -6.65625,-11.685547 z m 32.75,36.724609 c 1.202861,0.01535 2.245386,0.30461 2.753906,0.998047 1.627266,2.219 2.367188,11.095703 2.367188,11.095703 -8.728064,-2.514866 -11.686492,-7.840034 -11.390625,-9.615234 0.203408,-1.220449 3.623237,-2.512284 6.269531,-2.478516 z"
       sodipodi:nodetypes="ccsscccssccssccscssccccccscccccssc" />
    <path
       style="fill:#664411;"
       d="m 91.42277,93.789703 c 2.366933,-3.550399 22.78173,-11.24293 28.25526,-10.503263 5.47353,0.739666 7.5446,0.739666 7.5446,0.739666 4.58593,-5.473532 9.17186,-6.952864 9.17186,-6.952864 0,0 -4.73387,4.142131 -4.8818,8.13633 l 4.8818,3.550399 0.8876,4.142132 c 0,0 -11.24293,-5.473531 -24.26106,-5.029731 -5.02973,2.218999 -10.50326,10.059463 -10.50326,10.059463 z"
       id="path4"
       sodipodi:nodetypes="cscccccccc" />
    <path
       style="fill:#448800;"
       d="m 109.7665,40.385787 c -3.9942,9.319797 0.59173,19.37926 4.8818,21.302393 4.29006,1.923133 16.12472,-4.290065 19.97099,-1.035533 3.84627,3.254532 0.8876,9.46773 6.657,14.497462 5.7694,5.029732 10.35533,5.917331 10.94706,8.728064 0.59173,2.810732 -2.36693,11.538796 0.73967,14.645395 3.1066,3.106602 11.68673,5.177662 18.04786,3.846262 6.36113,-1.3314 16.56853,0 18.34373,-1.62726 1.77519,-1.627269 -1.62727,-4.585934 -1.62727,-5.769401 0,-1.183466 4.438,-4.733865 2.81073,-9.319797 -1.62726,-4.585932 -3.40246,-10.651196 -4.8818,-12.278462 -1.47933,-1.627267 0.59174,-2.958666 -1.47933,-5.325599 -2.07107,-2.366932 -5.62146,-2.071066 -6.95286,-4.585932 -1.3314,-2.514865 -2.6628,-22.189992 -8.58013,-27.95939 -5.91734,-5.769399 -23.66933,-9.467731 -30.62219,-8.875998 -6.95287,0.591734 -24.409,7.840465 -28.25526,13.757796 z"
       id="path9" />
    <path
       style="fill:#664411;"
       d="m 157.69688,88.759971 c 5.62147,-2.514866 17.60406,0.8876 17.60406,0.8876 0,0 -12.57432,1.035533 -15.68092,2.810732 z"
       id="path5"
       sodipodi:nodetypes="cccc" />
    <path
       style="fill:#448800;"
       d="m 43.048586,5.177665 c -5.769398,11.68673 39.941987,28.846991 41.125453,32.249456 1.183467,3.402466 7.248731,8.136331 11.094997,8.284264 3.846265,0.147933 12.870194,-5.177665 15.976794,-5.177665 3.1066,0 12.27846,2.514866 13.314,1.7752 1.03553,-0.739667 2.36693,0 3.25453,2.366932 0.8876,2.366933 8.28426,8.875997 11.095,7.692531 2.81073,-1.183466 4.73386,-2.662799 5.17766,-4.733865 0.4438,-2.071066 -3.1066,-8.432197 -3.1066,-9.02393 0,-0.591734 0.29587,-3.550399 -0.59173,-4.290066 -0.8876,-0.739666 -3.69833,-0.147933 -4.58593,-1.183466 -0.8876,-1.035533 -0.29587,-3.698332 -1.3314,-5.177665 l -1.03554,-1.479333 c 0,0 -1.92313,-1.775199 -3.84626,-3.402465 -1.92313,-1.627267 -0.8876,-5.621465 -5.7694,-7.840465 -4.8818,-2.218999 -14.49746,-3.402465 -16.71646,-3.402465 -2.219,0 -9.763598,0.591733 -12.278464,1.183466 -2.514866,0.591733 -7.248731,2.071066 -10.651197,1.7752 C 80.771574,14.497462 83.582306,7.1007977 77.517042,6.5090646 71.451777,5.9173314 65.978245,7.6925308 64.203046,8.284264 62.427846,8.8759971 43.048586,5.177665 43.048586,5.177665 Z"
       id="path8"
       sodipodi:nodetypes="cssssssssssscsssssssc" />
    <path
       style="fill:#448800;"
       d="m 77.812908,89.351704 c 0,0 -0.591733,-6.065264 -2.071066,-9.02393 -1.479333,-2.958666 -5.769398,-3.698332 -7.692531,-5.177665 -1.923132,-1.479333 0.4438,-7.988397 -2.366932,-10.947063 -2.810733,-2.958666 -11.68673,2.810732 -18.047861,1.923133 -12.278463,-3.846266 -15.089195,0.147933 -18.047861,1.775199 -2.958666,1.627266 -4.585932,-0.8876 -7.544597,2.366933 -2.958666,3.254532 -5.917332,10.059463 -5.917332,10.059463 0,0 -4.437998,-1.035533 -7.5445974,6.065265 -3.106599,7.100797 -1.4793329,9.171863 -1.4793329,9.171863 0,0 -2.5148659,5.917328 -0.7396664,6.656998 1.7751994,0.73967 6.0652647,1.3314 6.0652647,1.3314 0,0 -2.071066,6.36113 0.8876,7.1008 2.958665,0.73966 6.804931,1.03553 6.804931,1.03553 0,0 -2.810733,11.5388 0.591733,12.8702 3.402466,1.3314 14.349529,-3.25454 14.349529,-3.25454 l 16.124728,6.95287 10.503263,3.5504 4.290065,3.1066 21.746193,1.92313 7.248731,15.82886 c 0,0 14.349531,3.84627 17.012331,5.7694 2.6628,1.92313 9.46773,3.9942 11.53879,2.81073 2.07107,-1.18347 5.47353,-4.438 7.24873,-3.5504 1.7752,0.8876 1.7752,4.14213 2.219,6.50907 0.4438,2.36693 15.533,15.82886 18.6396,17.89992 3.1066,2.07107 21.59826,8.58013 28.10732,6.95287 6.50907,-1.62727 11.83466,-7.24873 11.83466,-7.24873 0,0 5.91734,0.14793 9.91153,-2.51487 3.9942,-2.6628 6.06527,-3.9942 4.8818,-6.95286 -1.18346,-2.95867 -7.69253,-6.95287 -7.69253,-6.95287 0,0 4.438,-6.80493 2.51487,-11.24293 -1.92313,-4.438 -10.50327,-6.65699 -11.9826,-10.50326 -1.47933,-3.84627 3.84627,-6.36113 3.69833,-8.58013 -0.14793,-2.219 -3.99419,-2.81073 -4.58593,-3.84627 -0.59173,-1.03553 1.92314,-3.99419 0.59174,-5.76939 -1.3314,-1.7752 -3.69834,-1.47934 -4.14214,-3.40247 -0.4438,-1.92313 1.3314,-4.8818 -0.73966,-5.7694 -2.07107,-0.8876 -7.1008,2.07107 -9.02393,-0.29586 -1.92314,-2.36694 -1.7752,-9.7636 -3.69834,-9.7636 -1.92313,0 -3.99419,7.39666 -8.72806,8.13633 -4.73386,0.73967 -15.23713,4.73386 -20.85859,0.59173 -5.62147,-4.14213 -16.71646,-24.261056 -23.22553,-24.556923 -6.50906,-0.295866 -6.2132,5.769399 -11.53879,5.917332 -5.3256,0.147933 -27.367663,-4.290066 -29.142862,-6.952865 z"
       id="path7" />
    <path
       style="fill:none;"
       d="m 115.79895,158.03608 c -3.69834,-5.62146 -6.03245,-8.62346 -4.40519,-10.84246 1.62727,-2.219 7.24873,3.69833 7.24873,3.69833 0,0 -2.36693,-9.02393 -0.59173,-10.6512 1.7752,-1.62726 7.69253,2.36694 7.69253,2.36694 0,0 -1.7752,-6.06527 0.29587,-7.24873 2.07106,-1.18347 8.54423,12.88071 11.35496,13.76831 2.81074,0.8876 5.65737,0.28535 5.65737,2.06055 0,1.7752 -2.219,4.14213 -2.219,4.14213 0,0 2.36693,-1.62727 2.07106,3.40246 -0.29586,5.02974 -5.76939,5.7694 -7.54459,5.62147"
       id="path11"
       sodipodi:nodetypes="cscscssscsc" />
    <path
       style="fill:#664411;"
       d="m 132.40029,142.01595 c 3.84627,-3.40246 4.73387,-1.03553 6.80493,-3.84626 2.07107,-2.81073 5.46741,-12.24497 7.84047,-13.46193 5.76939,-2.95867 17.45612,2.219 19.37926,0.8876 1.92313,-1.3314 1.92313,-5.3256 5.02973,-5.3256 3.1066,0 9.46773,0.73967 11.24293,0 1.7752,-0.73967 3.69833,-0.8876 3.69833,-0.8876 0,0 -0.59173,-3.84626 0.4438,-5.7694 1.03553,-1.92313 6.06526,-3.69833 6.06526,-3.69833 0,0 -2.95866,2.51487 -3.69833,5.02973 -0.73966,2.51487 -0.14793,4.73387 -0.14793,4.73387 0,0 2.95866,1.03553 4.438,-0.29587 1.47933,-1.3314 0.4438,-4.73386 2.51486,-5.3256 2.07107,-0.59173 11.24293,-1.47933 11.24293,-1.47933 0,0 -8.43219,2.07107 -10.35533,3.69833 -1.92313,1.62727 0.59174,4.8818 -2.95866,5.91733 -3.5504,1.03554 -5.47353,-0.14793 -7.39667,0.59174 -1.92313,0.73966 -4.29006,3.25453 -6.2132,2.95866 -1.92313,-0.29586 -5.76939,-1.03553 -7.98839,0.29587 -2.219,1.3314 -2.95867,5.47353 -6.36113,5.47353 -3.40247,0 -11.9826,-4.29006 -14.2016,-2.6628 -2.219,1.62727 -7.69253,12.8702 -10.2074,14.79333 -2.51486,1.92313 -8.74908,5.54532 -8.74908,5.54532 z"
       id="path1"
       sodipodi:nodetypes="cssssscscscsscsssssssscc" />
    <path
       style="fill:#664411;"
       d="m 101.03843,172.34228 c -0.8876,7.24873 -0.59173,12.87019 1.47934,15.23713 2.07106,2.36693 24.55692,12.42639 24.55692,12.42639 0,0 -28.846989,-2.6628 -33.284987,-7.69253 -4.437999,-5.02973 -5.029732,-8.876 -5.029732,-8.876 0,0 -5.769398,6.657 -10.503263,7.24873 -4.733865,0.59174 -9.319797,0.4438 -12.13053,1.7752 -2.810732,1.3314 -7.69253,4.29007 -7.69253,4.29007 0,0 3.698332,-6.06527 4.881798,-6.95287 1.183466,-0.8876 6.065265,-3.84626 6.804931,-5.47353 0.739667,-1.62726 1.479333,-4.29006 1.479333,-4.29006 0,0 -6.213198,1.03553 -7.248731,2.6628 -1.035533,1.62726 -5.325598,6.06526 -8.136331,6.65699 -2.810732,0.59174 -9.615663,-1.92313 -9.615663,-1.92313 0,0 7.692531,-1.7752 10.059463,-2.95866 2.366933,-1.18347 4.290065,-8.72807 7.692531,-9.7636 3.402466,-1.03553 7.396664,-1.3314 7.396664,-1.3314 0,0 1.3314,-8.72806 0.147934,-12.4264 -1.183467,-3.69833 -1.923133,-13.16606 -1.3314,-14.94126 0.591733,-1.7752 5.177665,-8.87599 5.177665,-8.87599 0,0 -11.68673,1.33139 -12.870196,-0.73967 -1.183466,-2.07107 -0.739666,-3.40247 -2.958666,-3.5504 -2.218999,-0.14793 -11.390863,-3.5504 -12.278462,-4.29007 -0.8876,-0.73966 0.4438,-5.02973 0.4438,-5.02973 0,0 1.183466,1.47934 1.923132,2.6628 0.739667,1.18347 7.840464,1.7752 7.840464,1.7752 0,0 0,-2.95866 -0.739666,-4.438 -0.739666,-1.47933 -2.662799,-5.62146 -2.662799,-5.62146 0,0 7.100798,1.7752 7.248731,4.73386 0.147933,2.95867 -0.4438,5.91733 0.739666,7.1008 1.183467,1.18347 2.071066,3.5504 5.177665,3.25453 3.106599,-0.29586 11.094997,0 11.982596,0.59174 0.8876,0.59173 2.810733,-3.69834 2.810733,-3.69834 l 12.130529,1.62727 c 0,0 1.479333,5.17767 0.8876,8.58013 -0.591733,3.40247 -0.295867,8.28426 -0.295867,8.28426 0,0 2.958666,-0.14793 5.473528,-0.14793 2.51487,0 1.18347,4.14213 3.5504,4.73387 2.36694,0.59173 5.7694,-0.4438 5.7694,-0.4438 l 3.5504,6.06526 c 0,0 -2.07107,6.36113 -5.3256,5.47353 -3.25453,-0.8876 -6.2132,-7.10079 -8.13633,-7.10079 -1.923132,0 -5.621464,0 -5.621464,0 0,0 0.147933,13.75779 6.656994,15.38506 z"
       id="path2" />
    <path
       style="fill:none;"
       d="m 13.609862,102.36983 c 3.550399,-3.254529 8.875997,-7.396661 12.426396,-6.804928 3.550399,0.591733 10.207397,3.550399 10.207397,3.550399 0,0 -3.550399,3.402469 -5.029732,4.881799 -1.479333,1.47933 -5.917331,0.59173 -8.284264,3.1066"
       id="path12" />
  </g>
</svg>
