<?xml version="1.0" encoding="UTF-8" standalone="no"?>
<!-- Created with Inkscape (http://www.inkscape.org/) -->

<svg
   id="svg2"
   width="480"
   height="600"
   version="1.0"
   sodipodi:docname="Blason_ville_fr_Bertre_(Tarn)_edit3.svg"
   inkscape:version="1.2.2 (b0a8486541, 2022-12-01)"
   xmlns:inkscape="http://www.inkscape.org/namespaces/inkscape"
   xmlns:sodipodi="http://sodipodi.sourceforge.net/DTD/sodipodi-0.dtd"
   xmlns:xlink="http://www.w3.org/1999/xlink"
   xmlns="http://www.w3.org/2000/svg"
   xmlns:svg="http://www.w3.org/2000/svg">
  <defs
     id="defs121" />
  <sodipodi:namedview
     id="namedview119"
     pagecolor="#ffffff"
     bordercolor="#111111"
     borderopacity="1"
     inkscape:showpageshadow="0"
     inkscape:pageopacity="0"
     inkscape:pagecheckerboard="1"
     inkscape:deskcolor="#d1d1d1"
     showgrid="false"
     inkscape:zoom="2"
     inkscape:cx="-31.75"
     inkscape:cy="255"
     inkscape:window-width="2880"
     inkscape:window-height="1620"
     inkscape:window-x="0"
     inkscape:window-y="491"
     inkscape:window-maximized="0"
     inkscape:current-layer="oak" />
  <g
     id="oak"
     style="stroke:#000000;stroke-width:2.5;stroke-linecap:round;stroke-linejoin:round"
     transform="translate(-60.599635,-21.431247)">
    <path
       id="path2392"
       d="m 280.687,360.805 c -9.77509,3.69533 -18.2983,10.2074 -32.6405,3.62671 3.69191,5.40572 2.28001,8.76992 0,11.7869 -12.3913,9.63707 -24.7826,1.27133 -37.1739,1.81335 l -9.0668,-6.34675 c -5.0909,0.48343 -6.93665,8.26848 -16.3203,-0.90668 l -14.5069,-9.06681 h -26.2938 l -6.34675,-13.6002 -33.5472,-17.2269 -9.06681,-33.5472 -11.7868,-9.0668 0.906667,-18.1336 -5.44007,-9.97349 c 0,0 -0.236433,-6.24264 0,-9.97349 0.906667,-14.3069 19.5329,-19.4497 10.8802,-26.2937 -12.5215,-9.90403 -12.0182,-24.0946 -8.16012,-24.4804 l 9.97349,-9.06681 v -17.2269 -14.5069 c 0,0 11.786803,-4.5334 14.506903,-9.0668 2.72003,-4.53341 7.25343,-9.97349 7.25343,-15.4136 0,-5.44009 0.90669,-13.6002 0.90669,-17.227 0,-3.62672 0.90668,-9.97347 0.90668,-9.97347 l 13.6002,-17.2269 16.3202,-19.947 c -4.5334,-3.92895 -4.83562,-8.46236 -0.90668,-13.6002 -1.01895,-4.5853 16.7468,-4.42747 19.947,-1.81337 3.14029,2.56516 1.81337,-8.16012 1.81337,-8.16012 6.87174,-8.57434 12.4246,-3.95985 18.1336,-0.906684 5.44009,-6.265 10.8802,-3.70157 16.3202,-4.5334 6.64899,-3.13826 13.298,-1.69604 19.947,3.62672 8.16013,-6.2629 16.3202,-3.18754 24.4804,0 l 3.62672,6.34677 c 5.53572,-12.3696 19.2617,-5.6287 31.7338,-1.81337 4.16008,-5.63358 7.72967,-21.9768 22.667,-5.44007 0.78345,-2.74206 22.259,-2.22656 22.667,8.16012 -6.44462,-12.2328 31.0924,-15.0503 32.6405,-9.06681 6.33174,1.23396 10.8951,5.41511 13.6002,12.6935 7.55567,-5.23673 15.1113,-4.13164 22.667,2.72004 7.59773,2.8241 8.11674,8.47971 9.97349,13.6002 9.67126,-6.00211 19.3425,-1.95503 29.0138,2.72005 4.53341,4.83562 6.04453,10.2757 4.5334,16.3202 11.4846,-3.57766 10.7291,-3.18324 22.2137,0.45335 0.7227,6.9512 10.607,15.262404 4.08006,22.213704 6.01761,-1.24681 12.0297,-2.48072 14.5069,4.53341 6.50544,8.81748 2.79746,14.2305 2.72004,20.8537 7.04777,-0.0903 13.4896,1.33431 18.1336,7.25344 6.15003,16.463 -4.60083,21.2254 -13.6002,27.2004 9.2982,-0.21411 17.8715,1.50494 23.5737,10.8802 l 0.90668,14.5069 4.5334,22.667 -9.97348,9.0668 c 7.10246,11.4846 10.8038,18.7158 6.2981,30.2004 6.64202,7.68891 -0.10634,10.9144 -4.22003,15.018 -0.54252,18.7119 8.35541,67.4114 -15.0089,48.8877 l -15.7604,12.9491 c -9.82237,9.06681 -0.74288,15.9246 -26.3759,10.9623 -4.63505,9.47989 -12.8569,12.9818 -23.1538,13.0252 -5.37795,8.55565 -39.1365,-19.8316 -34.6608,-25.8678 33.1789,-44.7468 -6.8001,1.81335 -10.4268,6.34675 -3.62673,4.5334 -28.1071,11.7868 -28.1071,11.7868 h -22.667 l -20.8536,10.8802 -29.9205,-3.62671 z"
       style="fill:#338800" />
    <g
       id="g301"
       transform="matrix(1.6637276,0,0,1.6637326,419.40747,-400.87944)"
       style="stroke-width:1.5025">
      <path
         id="path3092"
         d="m -120.719,288.406 c -6.93974,6.5 -11.2716,13 -21,19.5 -7.32788,-3.50586 -16.5436,-2.10342 -21.5938,-11.5312 l -1.78125,2.0625 c 5.36899,5.67123 12.3807,10.6592 20.3177,11.708 -0.62207,8.55111 3.60085,13.4962 5.71357,21.1358 -9.1394,3.99324 -21.3374,-4.96464 -31.0625,-10.6562 l -1.1875,1.9168 c 10.487,4.63402 17.2836,15.2854 32.25,13.4894 2.69521,11.5954 9.81059,20.5386 14.8125,30.75 l -4.4375,2.6875 0.28125,4.125 6.21875,-0.875 c 9.26989,1.71922 14.6017,5.40751 21,8.5625 l 6.5,18.9375 c 6.21254,11.0418 7.83328,16.155 12.6414,20.1747 1.73696,12.0378 5.43602,17.1274 4.51486,28.0753 -5.84235,-2.04376 -10.1044,-6.45798 -13.9062,-11.5625 l 2.96875,-3.84375 -4.71875,-2.0625 c -4.98868,-7.98022 -10.1579,-15.7498 -12.1562,-27.2188 l 1.78125,-2.375 -0.875,-4.71875 -5.34375,2.65625 c -11.2575,-6.44555 -24.4534,-4.16794 -36.6875,-6.21875 -0.56963,-6.38036 -8.64287,-11.0932 -13.3125,-16.5625 -9.67014,-6.8375 -17.7813,-11.8744 -20.7759,-24.6825 l -2.59912,1.90127 c 3.72449,11.961 10.4707,19.0017 20.7188,27.5 -6.86142,2.59264 -14.1219,0.39617 -20.5263,8.47393 l 0.99502,2.77607 c 9.35556,-9.14882 17.675,-6.1857 26.0312,-4.4375 3.52694,3.46408 6.73259,6.96832 6.21875,10.9375 l 2.6875,1.1875 c 6.30391,0.89401 16.6124,-2.21659 18.3438,3.25 l 2.0625,0.3125 c 13.3712,-3.1477 13.6438,6.1795 16.8438,12.7188 0.33016,7.5745 4.8435,13.0574 8,19.2188 -2.70166,2.88261 -5.19068,5.9247 -19.2188,0.3125 l -12.4375,-0.875 -2.96875,-7.125 c -6.56216,0.95395 -12.7894,-2.44664 -18.625,-10.9375 l -2.375,2.0625 5.9375,7.6875 c -10.9479,0.27032 -21.8958,4.97621 -32.8438,-2.65625 v 2.375 c 9.53444,4.96406 19.6186,5.52999 29.875,4.71875 -0.50878,7.54248 -13.6564,8.76557 -20.7188,13.0312 l 3.84375,1.78125 c 7.62543,-4.07106 18.4961,-5.36046 21.5938,-13.3125 10.6148,0.70005 12.6404,4.56449 9.46875,10.3438 l 6.53125,1.1875 c 1.21571,-1.51319 3.38715,-2.65879 13.9062,-0.59375 -1.83957,5.4396 -6.85626,6.64305 -10.6562,9.46875 h 4.71875 c 6.39969,-0.88079 8.05624,-3.79435 9.46875,-6.8125 7.68872,3.33759 13.8406,1.29631 20.125,-0.28125 3.38765,4.13634 6.73534,8.30266 12.125,10.9375 0.06481,4.37703 0.852905,8.57323 2.96875,12.4375 -1.91968,7.34879 -0.359397,13.3926 1.78125,19.2188 -2.74764,4.54167 -5.30958,9.08333 -5.03125,13.625 4.88818,12.4271 1.97108,24.8542 -1.1875,37.2812 -6.6399,10.1632 -19.9758,9.91033 -30.7812,13.5938 -7.64907,2.26144 -15.7112,4.46388 -26.9062,6.21875 -3.79114,3.03877 -5.86425,5.11114 -1.5,3.5625 7.10417,-1.68571 14.2083,-3.20575 21.3125,-3.875 10.0188,-2.79526 19.0188,-3.89238 27.5,-4.125 l 10.0625,-6.5 c -7.4305,5.96414 -15.8191,11.6089 -21.875,18.0312 -2.07709,3.56257 -0.70041,7.89583 -4.75,11.8438 -12.4819,5.42708 -15.8529,10.8542 -23.6562,16.2812 l -0.59375,3.25 c 10.0961,-8.11565 20.8149,-13.7404 31.9375,-17.75 2.09439,-2.44727 5.49055,-3.59279 4.75,-8.875 2.86355,-7.29728 17.1144,-9.18873 21.5938,-19.25 3.47134,2.22213 1.49138,3.89914 0,5.625 -0.006,2.81362 -6.42165,6.39794 -9.56701,9.21156 -2.0366,1.82179 -3.3358,2.87289 -1.68299,4.69469 -0.422514,5.89084 1.19103,11.103 3.84375,15.9688 -0.184494,8.54317 -8.05962,13.241 -12.125,19.8438 l 0.90625,1.46875 c 5.31256,-6.60438 14.1677,-11.9682 17.6649,-18.7541 0.667145,-1.29452 0.396654,-3.56911 0.678839,-4.90212 -2.37946,-3.84152 -6.04244,-7.04128 -3.5625,-13.3125 6.01042,-4.1766 12.0208,-13.1057 18.0312,-12.4375 -2.23174,6.66883 -1.00021,12.7604 -0.28125,18.9375 4.52415,2.58759 6.22514,6.86908 8.28125,10.9375 l 21.9062,13.3125 c 2.11445,1.30817 2.79753,0.8987 2.34375,-0.875 l -20.6875,-15.375 c -1.70627,-6.11458 -2.5348,-12.2292 -5.625,-18.3438 1.80538,-4.92598 7.83309,-8.44453 5.3125,-14.8125 1.46846,9.0472 5.66524,14.7896 14.2364,17.8071 3.04722,1.07275 5.80155,3.86703 6.76356,7.34917 9.6394,4.06403 22.7658,5.41598 37,5.90625 3.20808,-0.0682 4.21855,-0.73585 1.78125,-2.34375 -11.0521,-2.77083 -23.3451,-0.57812 -33.1562,-8.3125 -4.72178,-7.13268 -5.6593,-10.3695 -16.5625,-21 14.1511,8.04194 27.4327,4.45642 41.125,6.5 v -1.46875 c -10.0615,-2.46761 -16.9799,-1.26827 -30.1875,-7.40625 -5.62097,-2.3582 -12.1052,-3.85312 -13.3125,-10.625 l -6.1875,-25.4688 c 3.16749,-10.3542 4.57556,-20.7083 0.59375,-31.0625 0.795846,-3.68677 1.58435,-7.39312 0.875,-15.0938 -1.3568,-4.19126 2.20441,-7.83608 5.3125,-11.5312 4.24064,1.66983 7.41069,0.1279 10.6562,-1.1875 0.157224,-4.32302 -0.952103,-8.50532 3.5625,-13.3125 l 14.5,-5.3125 c 13.4884,-2.34844 23.391,-1.64899 26.625,4.71875 h 4.71875 c 10.5194,-9.05732 22.3869,-13.0595 35.8125,-11.2188 l 0.59375,-2.09375 c -7.01886,-0.82033 -13.2241,-2.29152 -21.9062,-1.78125 8.2267,-4.36349 8.87293,-11.3232 11.9413,-17.75 l -2.57013,-0.51506 c -1.30636,11.0257 -12.6457,14.9494 -19.1212,22.4213 -13.5104,-3.71754 -27.0208,-7.52661 -40.5312,0.28125 l -2.09375,-5.3125 -3.53125,-1.46875 1.1875,5.3125 c -9.1787,2.09637 -16.8924,8.0994 -24.5625,14.2188 6.65626,-9.65625 14.909,-18.7803 15.375,-30.5 21.3104,-2.71409 38.5959,-10.6181 46.1562,-31.0625 l 18.3438,-1.1875 2.65625,-2.65625 c -2e-6,0 -2.13751,0.5133 -1.15625,-0.59375 2.71562,-3.06375 17.3421,-12.5512 15.7331,-12.8193 l 0.970606,-1.88085 c -14.5378,8.19373 -15.9667,16.4234 -38.0162,13.5127 -0.176293,-8.60257 -0.984934,-17.2955 6.21875,-24.8438 2.9754,-0.0931 5.10815,-1.59059 5.90625,-5.3125 0.650471,-3.13426 -0.754011,-1.74761 -1.84014,-1.06136 -2.26264,3.65867 -5.75149,4.18366 -9.09736,4.59261 -4.28439,8.23173 -7.07677,16.5629 -5.9375,25.1562 l -5.3125,-2.0625 0.59375,5.3125 c 4.74914,20.4333 -16.2395,22.589 -35.8125,25.75 l -9.46875,5.3125 c -0.0036,7.43107 -3.99569,12.5355 -8.28125,17.4688 l -4.125,2.0625 v 4.75 l -6.8125,14.5 c -0.332371,-13.3902 -1.61621,-21.3157 -5.21627,-34.3428 9.18544,-6.14742 7.36853,-21.2594 11.1225,-29.2822 10.2308,-1.78663 20.7867,-8.77496 31.375,-16.2812 l 1.46875,2.375 3.25,-1.46875 -0.59375,-3.5625 10.75,-19.8125 1.09375,0.875 c -0.842978,-6.28684 -2.59319,-12.1201 0,-20.125 1.41786,-4.72917 3.57945,-9.45833 6.8125,-14.1875 l -1.33385,-0.55507 c -5.0371,5.48658 -5.81601,9.90862 -8.24257,14.7426 l -1.71226,17.4688 c -6.35827,15.0519 -15.4628,22.7264 -26.8676,28.4062 1.19294,-7.28758 0.467213,-14.2554 -0.48742,-21.185 l -2.48133,-0.12748 c 1.11709,5.93948 1.75837,11.9979 0,18.6562 0.582131,7.0559 -8.13996,6.04815 -12.4375,8.875 0.902217,-10.6228 1.9497,-20.904 -3.6974,-29.8763 7.72848,-10.3778 8.50187,-22.0214 14.0724,-33.4362 l -0.90625,-4.15625 c -1.31781,3.18587 -1.51528,10.0128 -4.125,9 -1.68988,-5.07292 -1.03701,-10.1458 -5.625,-15.2188 -3.51685,-3.14745 -6.75629,-6.98841 -9.54744,-11.9501 l -2.01506,1.01258 c 1.90963,5.41813 4.5873,10.2218 8.3125,14.1875 5.93734,6.14583 4.01042,12.2917 5.9375,18.4375 -2.8658,3.27477 -3.17233,8.33515 -5.65625,12.3438 0.817919,3.48732 -3.34996,7.6869 -5.03125,11.5312 v 0.59375 c 7.17279,10.2604 1.7,20.2484 2.89006,30.5088 -3.08586,-0.32021 -3.34721,2.25121 -4.67131,4.39748 1.62632,10.7876 -1.30755,14.248 -10.694,20.0574 -2.73526,-3.65371 -10.4865,-4.8825 -11.7748,-14.1198 -0.271142,-1.38744 -0.651311,-3.06945 -1.72052,-3.74451 -4.62699,-2.92133 -0.656563,-8.77209 -1.24823,-12.5367 7.13737,-3.91218 9.2047,-14.5496 12.0936,-23.1823 -1.67206,-10.7823 -3.58475,-21.768 -2.40068,-33.6302 h -2.00537 c -0.527102,9.95833 -0.790636,19.9167 1.1875,29.875 -2.42683,12.2711 -7.27281,22.123 -16.874995,27.2188 -5.1259,-2.45652 -11.2757,-2.86531 -15.375,-7.375 -4.25216,-5.25275 -9.03937,-10.3272 -10.3438,-16.5625 4.60189,-3.29586 9.67894,-6.53232 17.1562,-9.46875 2.97515,-4.86229 6.92241,-10.2801 12.437495,-16.5938 l -0.90625,-2.34375 -10.343795,12.4062 c -7,3.27255 -14,11.7798 -21,9.46875 -6.95673,-6.69792 -6.07994,-13.3958 -8.90625,-20.0938 5.5143,3.27133 9.64938,-1.043 14.2188,-2.96875 l 0.28125,-2.375 c -4.91303,0.86894 -8.92747,6.68014 -14.7812,2.375 -0.94109,-4.23958 -4.05426,-8.47917 -1.78125,-12.7188 8.10386,-5.77091 12.6778,-12.4243 18.9375,-18.6562 v -2.34375 z"
         style="fill:#995511" />
      <path
         id="path3389"
         d="m -57.2216,465.719 c 0.58352,5.23568 2.36618,10.1716 0.272484,16.0766 2.67999,11.0539 -0.548209,20.9261 -1.08994,31.3357 -1.60445,11.3434 3.44473,20.4688 5.72216,30.5182 v 0 h 0.544968"
         style="fill:none" />
      <path
         id="path3391"
         d="m -72.7532,461.087 0.817452,13.3517 c -1.01514,5.76491 0.109543,10.6739 2.72484,14.9866 -1.81656,2.72672 -3.63312,7.38888 -5.44968,12.2618 3.46272,12.7329 4.43729,25.0512 3.54229,37.0578 -0.172787,2.25021 -1.55482,4.19811 -4.63223,5.72216"
         style="fill:none" />
      <path
         id="path3393"
         d="m -45.2323,448.552 c 1.87352,-1.78238 2.86172,-4.09596 8.17452,-3.81477"
         style="fill:none" />
      <path
         id="path3395"
         d="m -78.2029,410.95 c 4.04821,3.63312 6.99446,7.26624 5.99465,10.8994"
         style="fill:none" />
    </g>
    <g
       id="l1"
       transform="matrix(1.08585,0,0,1.13275,522.103,-12.5905)"
       style="stroke-width:2.25418">
      <path
         id="path2202"
         d="m -161.53,266.984 c -1.92936,1.02899 -7.83364,-6.73182 -10.2955,-7.61756 -2.06971,-0.74466 -0.23009,2.51978 -1.28252,1.92666 -1.60304,-0.90341 -4.02424,-4.32743 -7.52437,-3.95842 -2.28893,0.24131 0.50575,5.17446 -0.76319,3.65913 -0.45219,-0.53998 -7.49954,-4.30365 -9.33814,-0.98118 -0.98253,1.7755 2.54969,1.86949 1.00296,2.7929 -1.06422,0.63535 -4.25947,-1.31504 -6.10514,1.72057 -0.79991,1.31563 1.64965,0.51389 0.80671,1.76614 -0.84294,1.25225 -3.49163,1.64914 -3.62342,2.96533 -0.13581,1.35633 1.56641,-0.25865 1.08424,1.675 -0.48219,1.93364 -3.80697,2.39811 -3.08234,5.15762 0.67044,2.55311 2.87071,1.26923 4.29343,1.0288 1.46884,-0.24822 0.0147,1.5925 1.46685,1.63928 1.63087,0.0525 3.37669,-2.62889 4.84847,-2.67795 1.47179,-0.0491 0.117,2.86577 2.07938,2.62047 1.96238,-0.24529 3.39148,-3.41732 5.35386,-3.80979 1.96237,-0.39248 0.15763,2.83703 2.21813,2.10113 2.0605,-0.73589 3.93462,-3.67597 6.09324,-4.55904 2.15862,-0.88307 -0.50218,0.85166 1.77804,1.02676 2.89935,0.22264 3.61152,-4.19579 6.86833,-4.90595 3.06322,-0.66794 4.90595,0.58872 4.90595,0.58872 l -0.78495,-2.15862 z"
         style="fill:#449900" />
      <path
         id="path2212"
         d="m -161.257,268.11 c -9.2081,-3.04815 -9.11189,-4.53082 -22.2968,0.29385"
         style="fill:none" />
    </g>
    <use
       id="use3896"
       transform="rotate(14.250747,1313.3047,265.49966)"
       xlink:href="#l1"
       style="stroke:#000000;stroke-width:2.5;stroke-linecap:round;stroke-linejoin:round" />
    <use
       id="use2418"
       transform="rotate(40.627918,635.96414,108.05504)"
       xlink:href="#l1"
       style="stroke:#000000;stroke-width:2.5;stroke-linecap:round;stroke-linejoin:round" />
    <use
       id="use2224"
       transform="translate(-231.521,-103.033)"
       xlink:href="#l1" />
    <use
       id="use2226"
       transform="rotate(-35.900544,253.33774,660.33468)"
       xlink:href="#l1" />
    <use
       id="use2228"
       transform="rotate(32.891027,199.06952,-95.971126)"
       xlink:href="#l1" />
    <use
       id="use2230"
       transform="rotate(-18.756808,101.43934,959.42566)"
       xlink:href="#l1" />
    <use
       id="use2234"
       transform="rotate(43.211492,289.45761,-20.033258)"
       xlink:href="#l1" />
    <use
       id="use2236"
       transform="rotate(51.663193,341.1505,0.01830056)"
       xlink:href="#l1" />
    <use
       id="use2238"
       transform="rotate(-29.439364,326.92576,725.90948)"
       xlink:href="#l1" />
    <use
       id="use2240"
       transform="rotate(-21.992922,431.25323,677.47855)"
       xlink:href="#l1" />
    <use
       id="use2242"
       transform="rotate(-24.472098,-212.62055,654.97359)"
       xlink:href="#l1" />
    <use
       id="use2244"
       transform="rotate(-38.085599,163.00327,456.06306)"
       xlink:href="#l1" />
    <use
       id="use2246"
       transform="rotate(-32.469197,236.34868,520.10079)"
       xlink:href="#l1" />
    <use
       id="use2248"
       transform="rotate(32.697244,415.04935,14.442863)"
       xlink:href="#l1" />
    <use
       id="use2250"
       transform="rotate(45.871252,482.5138,-43.445901)"
       xlink:href="#l1" />
    <use
       id="use2252"
       transform="rotate(-67.15676,124.24181,370.53048)"
       xlink:href="#l1" />
    <use
       id="use2254"
       transform="rotate(-21.851479,-253.32585,515.78456)"
       xlink:href="#l1" />
    <use
       id="use2232"
       transform="translate(-210.24,-154.951)"
       xlink:href="#l1" />
    <use
       id="use2256"
       transform="rotate(54.802276,485.05073,62.74537)"
       xlink:href="#l1" />
    <use
       id="use2258"
       transform="rotate(68.774222,384.82356,189.93554)"
       xlink:href="#l1" />
    <use
       id="use2260"
       transform="rotate(55.040996,387.20212,176.4599)"
       xlink:href="#l1" />
    <use
       id="use2262"
       transform="translate(-91.4647,-150.871)"
       xlink:href="#l1" />
    <use
       id="use2264"
       transform="rotate(20.873333,639.67185,234.26785)"
       xlink:href="#l1" />
    <use
       id="use2266"
       transform="translate(-19.3836,20.4914)"
       xlink:href="#l1" />
    <use
       id="use2268"
       transform="rotate(29.89916,370.88785,289.59789)"
       xlink:href="#l1" />
    <use
       id="use2270"
       transform="rotate(-25.917328,-4.4114338,252.62616)"
       xlink:href="#l1" />
    <use
       id="use2272"
       transform="rotate(-30.209961,-50.11646,265.38254)"
       xlink:href="#l1" />
    <use
       id="use2274"
       transform="rotate(58.919754,505.25098,153.81464)"
       xlink:href="#l1" />
    <use
       id="use2276"
       transform="rotate(86.191105,359.08164,286.30417)"
       xlink:href="#l1" />
    <use
       id="use2278"
       transform="rotate(-95.269098,266.50611,397.41879)"
       xlink:href="#l1" />
    <use
       id="use2280"
       transform="rotate(49.176663,241.32491,174.14845)"
       xlink:href="#l1" />
    <use
       id="use2282"
       transform="translate(53.1508,-119.591)"
       xlink:href="#l1" />
    <use
       xlink:href="#l1"
       id="use2284"
       transform="matrix(-1,0,0,1,586.5013,8.8961057)" />
    <use
       id="use2290"
       transform="rotate(-20.092444,-136.06365,594.45056)"
       xlink:href="#use2284" />
    <use
       id="use2292"
       transform="rotate(69.568458,157.04189,240.55699)"
       xlink:href="#use2284" />
    <use
       id="use2294"
       transform="rotate(53.09765,179.24477,298.49472)"
       xlink:href="#use2284" />
    <use
       id="use2296"
       transform="rotate(36.768553,265.92859,515.56701)"
       xlink:href="#use2284" />
    <use
       id="use2298"
       transform="rotate(59.568357,227.52052,167.79656)"
       xlink:href="#use2284" />
    <use
       id="use2300"
       transform="translate(-197.546,-67.9099)"
       xlink:href="#l1" />
    <use
       id="use2302"
       transform="rotate(-7.7243894,-336.88639,993.1261)"
       xlink:href="#use2284" />
    <use
       id="use2304"
       transform="rotate(-81.793164,149.10894,318.00073)"
       xlink:href="#use2284" />
    <use
       id="use2306"
       transform="rotate(23.524938,583.00016,-29.148525)"
       xlink:href="#use2284" />
    <use
       id="use2308"
       transform="rotate(29.901264,582.82929,14.014169)"
       xlink:href="#use2284" />
    <use
       id="use2310"
       transform="translate(-19.947,-219.417)"
       xlink:href="#use2284" />
    <use
       id="use2312"
       transform="rotate(69.130912,387.84746,173.24541)"
       xlink:href="#use2284" />
    <use
       id="use2314"
       transform="translate(21.307,-69.8144)"
       xlink:href="#use2284" />
    <use
       id="use2316"
       transform="translate(2.26671,-32.1872)"
       xlink:href="#use2284" />
    <use
       id="use2318"
       transform="matrix(0.23926,-0.970955,0.970955,0.23926,-113.516,426.758)"
       xlink:href="#use2284" />
    <use
       id="use2320"
       transform="rotate(-28.026566,259.93408,675.16769)"
       xlink:href="#l1" />
    <use
       id="use2322"
       transform="rotate(33.127311,245.96575,-16.53403)"
       xlink:href="#l1" />
    <use
       id="use2324"
       transform="rotate(-30.627877,386.2495,242.75178)"
       xlink:href="#l1" />
    <use
       id="use2326"
       transform="translate(15.8669,-160.029)"
       xlink:href="#use2284" />
    <use
       id="use2328"
       transform="translate(-27.6538,-90.2147)"
       xlink:href="#use2284" />
    <use
       id="use2330"
       transform="rotate(69.942992,351.27478,64.812405)"
       xlink:href="#l1" />
    <use
       id="use2332"
       transform="translate(-136.799,-157.671)"
       xlink:href="#l1" />
    <use
       id="use2334"
       transform="rotate(-44.134502,20.553973,253.94056)"
       xlink:href="#use2284" />
    <use
       id="use2336"
       transform="translate(64.3743,-212.617)"
       xlink:href="#use2284" />
    <use
       id="use2406"
       transform="rotate(30.015362,472.07618,-25.497097)"
       xlink:href="#l1" />
    <use
       id="use2338"
       transform="translate(-111.412,-126.844)"
       xlink:href="#l1" />
    <use
       id="use2340"
       transform="rotate(-57.435739,100.03645,208.50122)"
       xlink:href="#use2284" />
    <use
       id="use2342"
       transform="translate(-5.78343,-172.178)"
       xlink:href="#l1" />
    <use
       id="use2344"
       transform="rotate(32.984156,283.73344,222.42023)"
       xlink:href="#use2284" />
    <use
       id="use2346"
       transform="rotate(47.512688,425.14938,361.43373)"
       xlink:href="#use2284" />
    <use
       id="use2348"
       transform="matrix(0.718385,0.695645,-0.695645,0.718385,375.838,-262.088)"
       xlink:href="#use2284" />
    <use
       id="use2350"
       transform="rotate(-42.553492,63.082755,80.142775)"
       xlink:href="#use2284" />
    <use
       id="use2352"
       transform="translate(-169.439,-33.4561)"
       xlink:href="#l1" />
    <use
       id="use2354"
       transform="rotate(-24.04017,388.3677,-32.327269)"
       xlink:href="#l1" />
    <use
       id="use2356"
       transform="rotate(-18.202125,162.65896,29.564792)"
       xlink:href="#l1" />
    <use
       id="use2358"
       transform="rotate(-20.880857,100.11605,-34.499106)"
       xlink:href="#l1" />
    <use
       id="use2360"
       transform="translate(154.042,-86.724)"
       xlink:href="#l1" />
    <use
       id="use2362"
       transform="rotate(-40.511904,146.0303,116.49338)"
       xlink:href="#l1" />
    <use
       id="use2364"
       transform="translate(103.714,25.7925)"
       xlink:href="#l1" />
    <use
       id="use2366"
       transform="rotate(65.080149,421.80232,391.12016)"
       xlink:href="#l1" />
    <use
       id="use2368"
       transform="rotate(54.720391,504.99354,333.7593)"
       xlink:href="#l1" />
    <use
       id="use2394"
       transform="rotate(44.36833,603.83503,236.66016)"
       xlink:href="#l1" />
    <use
       id="use2370"
       transform="rotate(44.983187,586.91922,280.66805)"
       xlink:href="#l1" />
    <use
       id="use2372"
       transform="rotate(47.048997,387.88659,572.97262)"
       xlink:href="#use2284" />
    <use
       id="use2374"
       transform="rotate(-28.9579,466.93646,5.5011277)"
       xlink:href="#l1" />
    <use
       id="use2376"
       transform="rotate(53.214339,407.14815,437.81477)"
       xlink:href="#use2284" />
    <use
       id="use2378"
       transform="rotate(65.290976,443.65386,456.92503)"
       xlink:href="#use2284" />
    <use
       id="use2380"
       transform="rotate(-22.979143,48.651556,-284.60679)"
       xlink:href="#use2284" />
    <use
       id="use2382"
       transform="matrix(0.787022,-0.616924,0.616924,0.787022,40.6098,31.6396)"
       xlink:href="#use2284" />
    <use
       id="use2384"
       transform="rotate(40.673061,570.58685,440.20887)"
       xlink:href="#use2284" />
    <use
       id="use2386"
       transform="rotate(83.946447,412.94108,355.91042)"
       xlink:href="#use2284" />
    <use
       id="use2388"
       transform="translate(246.781,-95.4908)"
       xlink:href="#use2284" />
    <use
       id="use2390"
       transform="rotate(-45.106917,318.0031,134.91762)"
       xlink:href="#use2284" />
    <use
       id="use2396"
       transform="translate(229.39,-69.8144)"
       xlink:href="#use2284" />
    <use
       id="use2398"
       transform="translate(-5.44008,29.9205)"
       xlink:href="#use2284" />
    <use
       id="use2400"
       transform="rotate(-44.623499,-47.972458,208.06805)"
       xlink:href="#use2284" />
    <use
       id="use2402"
       transform="rotate(-46.15911,11.924156,112.25414)"
       xlink:href="#use2284" />
    <use
       id="use2404"
       transform="translate(-25.8404,-97.0148)"
       xlink:href="#l1" />
    <use
       id="use2408"
       transform="matrix(0.684583,0.728934,-0.728934,0.684583,163.95,-367.856)"
       xlink:href="#l1" />
    <use
       id="use2416"
       transform="rotate(49.53524,602.98436,229.24196)"
       xlink:href="#l1" />
    <use
       id="use2410"
       transform="rotate(-41.201966,35.151971,4.5914079)"
       xlink:href="#use2284" />
    <use
       id="use3900"
       transform="rotate(28.527986,729.46142,614.21081)"
       xlink:href="#use2284" />
    <use
       id="use2412"
       transform="rotate(-41.460613,160.00947,-45.568129)"
       xlink:href="#use2284" />
    <use
       id="use3397"
       transform="translate(5.89342,-73.4411)"
       xlink:href="#l1" />
    <use
       id="use3399"
       transform="translate(73.4411,-33.5472)"
       xlink:href="#l1" />
    <use
       id="use3401"
       transform="rotate(-27.449787,128.22128,-23.491515)"
       xlink:href="#use2284" />
    <use
       id="use3403"
       transform="rotate(56.806993,471.49944,365.25548)"
       xlink:href="#use2284" />
    <use
       id="use3405"
       transform="rotate(66.593307,413.83486,291.73126)"
       xlink:href="#use2284" />
    <use
       id="use3407"
       transform="rotate(52.550225,370.45936,459.89087)"
       xlink:href="#use2284" />
    <use
       id="use3898"
       transform="rotate(59.962202,420.62085,493.47028)"
       xlink:href="#use2284" />
  </g>
</svg>
